<!-- Generated by scripts/gen-pet-assets.mjs — hand edits are fine; rerunning overwrites. -->
<svg xmlns="http://www.w3.org/2000/svg" viewBox="0 0 200 200" width="200" height="200">
  <g transform="translate(0 -3)"><ellipse cx="100" cy="170" rx="54" ry="8" fill="rgba(0,0,0,0.10)"/>
      <g>
        <path d="M100 24 q-10 -16 -2 -22 q10 6 6 14 q8 -8 14 -2 q-2 8 -10 12 Z" fill="#C23600"/>
        <circle cx="100" cy="90" r="72" fill="none" stroke="#C23600" stroke-width="2" stroke-dasharray="6 10" opacity="0.5"/>
        <g fill="#8F2500" opacity="0.8">
          <path d="M34 62 l4 -8 4 8 -4 8 Z"/>
          <path d="M162 118 l4 -8 4 8 -4 8 Z"/>
          <path d="M148 40 l3 -6 3 6 -3 6 Z"/>
        </g>
      </g>
      <path d="M 100 25 C 136.6 25 160 42.64 160 95.56 C 160 137.14 134.2 151 100 151 C 65.80000000000001 151 40 137.14 40 95.56 C 40 42.64 63.4 25 100 25 Z" fill="#FF4500" stroke="#C23600" stroke-width="3"/>
      <polygon points="84.0,89.0 86.1,93.9 91.0,96.0 86.1,98.1 84.0,103.0 81.9,98.1 77.0,96.0 81.9,93.9" fill="#333333"/><polygon points="116.0,89.0 118.1,93.9 123.0,96.0 118.1,98.1 116.0,103.0 113.9,98.1 109.0,96.0 113.9,93.9" fill="#333333"/><path d="M86 116 q14 12 28 0" stroke="#333333" stroke-width="3" fill="none" stroke-linecap="round"/></g>
  <g fill="#333333">
                  <rect x="140" y="34" width="6" height="18" rx="3"/>
                  <circle cx="143" cy="60" r="3.4"/>
                </g>
</svg>
