<!-- Generated by scripts/gen-pet-assets.mjs — hand edits are fine; rerunning overwrites. -->
<svg xmlns="http://www.w3.org/2000/svg" viewBox="0 0 200 200" width="200" height="200">
  <ellipse cx="100" cy="170" rx="46.800000000000004" ry="8" fill="rgba(0,0,0,0.10)"/>
      <g fill="#FFE4B5" stroke="#E6B980" stroke-width="3">
        <ellipse cx="44" cy="112" rx="9" ry="14" transform="rotate(18 44 112)"/>
        <ellipse cx="156" cy="112" rx="9" ry="14" transform="rotate(-18 156 112)"/>
      </g>
      <path d="M 100 40 C 131.72 40 152 51.199999999999996 152 102.72 C 152 139.68 129.64 152 100 152 C 70.36 152 48 139.68 48 102.72 C 48 51.199999999999996 68.28 40 100 40 Z" fill="#FFE4B5" stroke="#E6B980" stroke-width="3"/>
      
  <path d="M78 96 q6 6 12 0 M110 96 q6 6 12 0" stroke="#333333" stroke-width="3" fill="none" stroke-linecap="round"/><path d="M94 119 h12" stroke="#333333" stroke-width="3" fill="none" stroke-linecap="round"/>
  <g stroke="#8aa2c0" stroke-width="3" fill="none" stroke-linecap="round" stroke-linejoin="round">
                  <path d="M146 52 h12 l-12 12 h12"/>
                  <path d="M164 34 h9 l-9 9 h9" opacity="0.7"/>
                </g>
</svg>
